<?xml version="1.0" encoding="UTF-8" standalone="no"?>
<!-- Created with Digital by H.Neemann -->
<!-- created: Wed Sep 03 15:10:08 BRT 2025 -->

<svg
   xmlns:svg="http://www.w3.org/2000/svg"
   xmlns="http://www.w3.org/2000/svg"
   width="88.35mm"
   height="44.1mm"
   viewBox="104 183 589 294">
<g stroke-linecap="square">
<path d="M 540,240 L 580,240 L 620,240" stroke="#000000" stroke-width="4.0" fill="none"/>
<path d="M 220,460 L 220,240 L 260,240" stroke="#000000" stroke-width="4.0" fill="none"/>
<path d="M 540,420 L 560,420 L 620,420" stroke="#000000" stroke-width="4.0" fill="none"/>
<path d="M 180,420 L 260,420" stroke="#000000" stroke-width="4.0" fill="none"/>
<path d="M 360,440 L 440,440" stroke="#000000" stroke-width="4.0" fill="none"/>
<path d="M 180,200 L 260,200" stroke="#000000" stroke-width="4.0" fill="none"/>
<path d="M 360,220 L 440,220" stroke="#000000" stroke-width="4.0" fill="none"/>
<path d="M 180,460 L 220,460 L 260,460" stroke="#000000" stroke-width="4.0" fill="none"/>
<path d="M 440,260 L 400,260 L 400,300 L 560,300 L 560,420" stroke="#000000" stroke-width="4.0" fill="none"/>
<path d="M 440,400 L 400,400 L 400,360 L 580,360 L 580,240" stroke="#000000" stroke-width="4.0" fill="none"/>
<g>
<circle cx="580.0" cy="240.0" r="4.0" stroke="#000000" stroke-width="4.0" fill="#000000" />
<circle cx="560.0" cy="420.0" r="4.0" stroke="#000000" stroke-width="4.0" fill="#000000" />
<circle cx="220.0" cy="460.0" r="4.0" stroke="#000000" stroke-width="4.0" fill="#000000" />
</g>
<g>
<path d="M 490,270 L 441,270 L 441,210 L 490,210 C 500,210 520,220 519,240 C 519,260 500,270 490,270 Z" stroke="#000000" stroke-width="4.0" fill="none"/>
<circle cx="530.0" cy="240.0" r="9.0" stroke="#000000" stroke-width="4.0" fill="none" />
</g>
<g>
<path d="M 490,450 L 441,450 L 441,390 L 490,390 C 500,390 520,400 519,420 C 519,440 500,450 490,450 Z" stroke="#000000" stroke-width="4.0" fill="none"/>
<circle cx="530.0" cy="420.0" r="9.0" stroke="#000000" stroke-width="4.0" fill="none" />
</g>
<g>
<path d="M 310,250 L 261,250 L 261,190 L 310,190 C 320,190 340,200 339,220 C 339,240 320,250 310,250 Z" stroke="#000000" stroke-width="4.0" fill="none"/>
<circle cx="350.0" cy="220.0" r="9.0" stroke="#000000" stroke-width="4.0" fill="none" />
</g>
<g>
<path d="M 310,470 L 261,470 L 261,410 L 310,410 C 320,410 340,420 339,440 C 339,460 320,470 310,470 Z" stroke="#000000" stroke-width="4.0" fill="none"/>
<circle cx="350.0" cy="440.0" r="9.0" stroke="#000000" stroke-width="4.0" fill="none" />
</g>
<g>
<path d="M 149,185 L 179,185 L 179,215 L 149,215 Z" stroke="#000000" stroke-width="4.0" fill="none"/>
<circle cx="164.0" cy="200.0" r="9.0" stroke="#000000" stroke-width="4.0" fill="none" />
<text text-anchor="end" x="135.0" y="209.0" fill="#000000" style="font-size:24px"><tspan style="font-style:italic;">S</tspan></text>
</g>
<g>
<path d="M 149,405 L 179,405 L 179,435 L 149,435 Z" stroke="#000000" stroke-width="4.0" fill="none"/>
<circle cx="164.0" cy="420.0" r="9.0" stroke="#000000" stroke-width="4.0" fill="none" />
<text text-anchor="end" x="135.0" y="429.0" fill="#000000" style="font-size:24px"><tspan style="font-style:italic;">R</tspan></text>
</g>
<g>
<path d="M 149,445 L 179,445 L 179,475 L 149,475 Z" stroke="#000000" stroke-width="4.0" fill="none"/>
<circle cx="164.0" cy="460.0" r="9.0" stroke="#000000" stroke-width="4.0" fill="none" />
<text text-anchor="end" x="135.0" y="469.0" fill="#000000" style="font-size:24px"><tspan style="font-style:italic;">En</tspan></text>
</g>
<g>
<circle cx="636.0" cy="240.0" r="9.0" stroke="#000000" stroke-width="4.0" fill="none" />
<circle cx="636.0" cy="240.0" r="15.0" stroke="#000000" stroke-width="4.0" fill="none" />
<text text-anchor="start" x="665.0" y="249.0" fill="#000000" style="font-size:24px"><tspan style="font-style:italic;">Q</tspan></text>
</g>
<g>
<circle cx="636.0" cy="420.0" r="9.0" stroke="#000000" stroke-width="4.0" fill="none" />
<circle cx="636.0" cy="420.0" r="15.0" stroke="#000000" stroke-width="4.0" fill="none" />
<text text-anchor="start" x="665.0" y="429.0" fill="#000000" style="font-size:24px"><tspan style="font-style:italic;">!Q</tspan></text>
</g>
</g>
</svg>