<?xml version="1.0" encoding="UTF-8" standalone="no"?>
<!-- Created with Digital by H.Neemann -->
<!-- created: Wed Sep 03 15:00:29 BRT 2025 -->

<svg
   xmlns:svg="http://www.w3.org/2000/svg"
   xmlns="http://www.w3.org/2000/svg"
   width="59.55mm"
   height="35.1mm"
   viewBox="256 223 397 234">
<g stroke-linecap="square">
<path d="M 320,240 L 400,240 L 404,240" stroke="#000000" stroke-width="4.0" fill="none"/>
<path d="M 500,260 L 520,260 L 580,260" stroke="#000000" stroke-width="4.0" fill="none"/>
<path d="M 500,420 L 540,420 L 580,420" stroke="#000000" stroke-width="4.0" fill="none"/>
<path d="M 320,440 L 400,440 L 404,440" stroke="#000000" stroke-width="4.0" fill="none"/>
<path d="M 404,400 L 400,400 L 360,400 L 360,360 L 520,360 L 520,260" stroke="#000000" stroke-width="4.0" fill="none"/>
<path d="M 540,420 L 540,320 L 360,320 L 360,280 L 400,280 L 404,280" stroke="#000000" stroke-width="4.0" fill="none"/>
<g>
<circle cx="520.0" cy="260.0" r="4.0" stroke="#000000" stroke-width="4.0" fill="#000000" />
<circle cx="540.0" cy="420.0" r="4.0" stroke="#000000" stroke-width="4.0" fill="#000000" />
</g>
<g>
<path d="M 430,290 L 400,290 C 410,274 410,246 400,230 L 420,230 C 450,230 470,240 480,260 C 470,280 450,290 430,290 Z" stroke="#000000" stroke-width="4.0" fill="none"/>
<circle cx="490.0" cy="260.0" r="9.0" stroke="#000000" stroke-width="4.0" fill="none" />
</g>
<g>
<path d="M 430,450 L 400,450 C 410,434 410,406 400,390 L 420,390 C 450,390 470,400 480,420 C 470,440 450,450 430,450 Z" stroke="#000000" stroke-width="4.0" fill="none"/>
<circle cx="490.0" cy="420.0" r="9.0" stroke="#000000" stroke-width="4.0" fill="none" />
</g>
<g>
<path d="M 289,225 L 319,225 L 319,255 L 289,255 Z" stroke="#000000" stroke-width="4.0" fill="none"/>
<circle cx="304.0" cy="240.0" r="9.0" stroke="#000000" stroke-width="4.0" fill="none" />
<text text-anchor="end" x="275.0" y="249.0" fill="#000000" style="font-size:24px"><tspan style="font-style:italic;">R</tspan></text>
</g>
<g>
<path d="M 289,425 L 319,425 L 319,455 L 289,455 Z" stroke="#000000" stroke-width="4.0" fill="none"/>
<circle cx="304.0" cy="440.0" r="9.0" stroke="#000000" stroke-width="4.0" fill="none" />
<text text-anchor="end" x="275.0" y="449.0" fill="#000000" style="font-size:24px"><tspan style="font-style:italic;">S</tspan></text>
</g>
<g>
<circle cx="596.0" cy="260.0" r="9.0" stroke="#000000" stroke-width="4.0" fill="none" />
<circle cx="596.0" cy="260.0" r="15.0" stroke="#000000" stroke-width="4.0" fill="none" />
<text text-anchor="start" x="625.0" y="269.0" fill="#000000" style="font-size:24px"><tspan style="font-style:italic;">Q</tspan></text>
</g>
<g>
<circle cx="596.0" cy="420.0" r="9.0" stroke="#000000" stroke-width="4.0" fill="none" />
<circle cx="596.0" cy="420.0" r="15.0" stroke="#000000" stroke-width="4.0" fill="none" />
<text text-anchor="start" x="625.0" y="429.0" fill="#000000" style="font-size:24px"><tspan style="font-style:italic;">!Q</tspan></text>
</g>
</g>
</svg>