<?xml version="1.0" encoding="UTF-8" standalone="no"?>
<!-- Created with Inkscape (http://www.inkscape.org/) -->

<svg
   width="395.12439mm"
   height="393.94308mm"
   viewBox="0 0 395.12439 393.94308"
   version="1.1"
   id="svg1"
   xml:space="preserve"
   inkscape:version="1.3.1 (91b66b0783, 2023-11-16)"
   sodipodi:docname="maracatronics.svg"
   xmlns:inkscape="http://www.inkscape.org/namespaces/inkscape"
   xmlns:sodipodi="http://sodipodi.sourceforge.net/DTD/sodipodi-0.dtd"
   xmlns="http://www.w3.org/2000/svg"
   xmlns:svg="http://www.w3.org/2000/svg"><sodipodi:namedview
     id="namedview1"
     pagecolor="#ffffff"
     bordercolor="#000000"
     borderopacity="0.25"
     inkscape:showpageshadow="2"
     inkscape:pageopacity="0.0"
     inkscape:pagecheckerboard="0"
     inkscape:deskcolor="#d1d1d1"
     inkscape:document-units="mm"
     inkscape:zoom="0.38192233"
     inkscape:cx="678.14836"
     inkscape:cy="743.60669"
     inkscape:window-width="1920"
     inkscape:window-height="995"
     inkscape:window-x="-9"
     inkscape:window-y="-9"
     inkscape:window-maximized="1"
     inkscape:current-layer="layer1" /><defs
     id="defs1" /><g
     inkscape:label="Camada 1"
     inkscape:groupmode="layer"
     id="layer1"
     transform="translate(63.097406,116.93103)"><path
       style="fill:#000000"
       d="m 91.460805,276.76169 c -5.48809,-0.72072 -10.38863,-4.31417 -13.03633,-9.55924 -1.38095,-2.73565 -1.93756,-5.26867 -1.93641,-8.81217 10e-4,-3.26436 0.28067,-4.80219 1.43177,-7.87493 1.65184,-4.4094 6.00522,-8.5224 10.64237,-10.05472 2.45974,-0.8128 7.63796,-0.79893 9.8617,0.0264 1.863785,0.69175 4.599765,2.29885 6.079175,3.57085 l 1.04954,0.9024 -2.05529,3.01082 c -1.13041,1.65594 -2.22178,3.23372 -2.42527,3.50616 -0.35424,0.47429 -0.42396,0.45602 -1.640085,-0.4298 -2.43466,-1.7734 -3.4641,-2.16989 -5.63574,-2.17061 -2.3875,-7.9e-4 -3.87035,0.58965 -5.68756,2.2647 -1.61348,1.48725 -2.44707,2.95775 -2.89775,5.11181 -0.73926,3.53325 0.27855,6.92974 2.77689,9.26664 1.84088,1.72192 3.37629,2.36337 5.67613,2.37131 2.12806,0.007 3.54784,-0.55783 5.72548,-2.27915 0.730605,-0.57751 1.364975,-1.00994 1.409705,-0.96097 0.36303,0.39748 4.63878,6.95517 4.63878,7.11446 0,0.2563 -2.90774,2.45564 -4.35111,3.29106 -2.411025,1.39549 -6.486185,2.11728 -9.625995,1.70494 z m 115.378825,-0.0116 c -5.5815,-0.93013 -10.9217,-5.71742 -12.89981,-11.5642 -1.66835,-4.93122 -1.28538,-11.54458 0.92132,-15.9099 3.46296,-6.8505 10.21024,-10.53262 17.47719,-9.53764 4.17095,0.57109 7.15023,2.11971 10.10448,5.2523 2.99344,3.17414 4.62979,7.18671 4.89162,11.99498 0.34502,6.33597 -1.44456,11.33108 -5.49361,15.33383 -3.77789,3.7347 -9.33255,5.37528 -15.00119,4.43063 z m 6.68484,-9.46957 c 3.56519,-1.57347 5.60195,-5.23817 5.36873,-9.65981 -0.19583,-3.71278 -2.14342,-6.80654 -5.2029,-8.26484 -2.12633,-1.01351 -4.91312,-1.01812 -6.97052,-0.0115 -3.8596,1.88833 -5.94172,6.16787 -5.22015,10.72942 0.95851,6.05939 6.75424,9.5329 12.02484,7.20676 z m 78.4447,9.47986 c -4.8034,-0.63166 -9.24739,-3.5317 -11.96195,-7.80607 -2.27674,-3.58499 -2.95687,-6.06335 -2.93536,-10.69632 0.0275,-5.91643 1.48744,-9.59038 5.37231,-13.51918 2.56412,-2.59311 4.9345,-3.94535 8.06979,-4.60361 5.35456,-1.12421 10.01796,0.17049 14.67855,4.0752 l 0.92022,0.77097 -2.05749,3.00029 c -1.13162,1.65016 -2.21739,3.21371 -2.41282,3.47455 -0.33258,0.44391 -0.463,0.39925 -2.03772,-0.69772 -2.95069,-2.05549 -5.30707,-2.49329 -7.99893,-1.48613 -3.79657,1.42047 -6.09837,4.93341 -6.06106,9.25021 0.0228,2.64339 0.77197,4.58965 2.49024,6.46971 3.42436,3.74679 7.88909,3.92778 12.08458,0.48989 0.62648,-0.51335 1.17502,-0.89029 1.21898,-0.83763 0.0439,0.0527 1.10277,1.62536 2.35293,3.4949 2.54858,3.81127 2.5322,3.63491 0.486,5.23271 -3.4968,2.7305 -7.90546,3.95406 -12.20827,3.38823 z m -37.57084,-2.19061 c -0.94588,-1.05523 -4.51776,-4.98352 -7.9375,-8.72954 l -6.2177,-6.81095 -0.1323,8.54404 -0.13229,8.54405 -4.16719,0.0729 -4.16718,0.0729 v -17.99839 -17.99839 l 1.38906,0.001 1.38906,0.001 6.61459,7.19172 c 3.63802,3.95544 7.23532,7.85427 7.99399,8.66407 l 1.37942,1.47235 0.01,-8.53281 0.01,-8.53281 h 4.23334 4.23333 v 17.99166 17.99167 l -1.38906,-0.0129 c -1.38479,-0.0129 -1.39436,-0.0188 -3.10886,-1.93153 z m 61.30356,1.65461 c -1.44704,-0.34054 -3.63088,-1.42326 -5.0384,-2.49798 -1.16159,-0.88694 -2.55474,-2.82541 -2.55474,-3.55475 0,-0.18864 1.03704,-1.48787 2.30453,-2.88717 1.26748,-1.39931 2.33492,-2.58968 2.37208,-2.64527 0.0371,-0.0556 0.73326,0.50734 1.5469,1.25097 1.53253,1.40064 3.30882,2.15739 5.06395,2.15739 1.15166,0 2.94994,-0.73491 3.27235,-1.33733 0.84842,-1.58531 -0.30702,-2.79641 -5.16327,-5.412 -4.5689,-2.46082 -6.13296,-3.82344 -7.35857,-6.4108 -0.77076,-1.62716 -0.84734,-2.01891 -0.84734,-4.33481 0,-2.44792 0.0408,-2.62593 1.05833,-4.62195 0.83354,-1.63504 1.39314,-2.345 2.63463,-3.34255 2.40635,-1.93353 3.91787,-2.4282 7.41954,-2.4282 3.8658,0 5.41245,0.5783 7.72412,2.88807 2.1543,2.15253 2.2873,2.70973 0.99428,4.16546 -1.87131,2.10678 -3.58877,3.90078 -3.73436,3.90078 -0.08,0 -0.37134,-0.28726 -0.64751,-0.63835 -1.55696,-1.97935 -6.25787,-2.34487 -6.9503,-0.54042 -0.60397,1.57392 0.17135,2.35713 3.99971,4.04039 5.77571,2.53947 8.56458,5.43348 9.35349,9.70609 0.60833,3.29466 -0.3083,6.65128 -2.45895,9.00444 -2.48513,2.71912 -5.27635,3.84445 -9.42853,3.80127 -1.40587,-0.0146 -3.00874,-0.13309 -3.56194,-0.26328 z M -56.751682,258.25262 v -18.01047 l 1.777925,0.0782 1.777926,0.0782 6.622596,10.24987 c 3.642427,5.63743 6.68348,10.2511 6.757895,10.2526 0.07442,10e-4 3.118457,-4.61094 6.764538,-10.24987 l 6.629237,-10.2526 1.768275,-0.0782 1.768276,-0.0782 v 18.01047 18.01048 l -4.167188,-0.0729 -4.167187,-0.0729 -0.132292,-6.85004 -0.132292,-6.85004 -3.816672,6.09052 c -4.138539,6.60415 -4.466905,7.09848 -4.602531,6.92878 -0.04966,-0.0621 -1.926127,-3.0226 -4.169921,-6.5788 l -4.079626,-6.46583 -0.132292,6.86271 -0.132292,6.8627 -4.167187,0.0729 -4.167188,0.0729 z m 37.114657,17.66631 c 0.07128,-0.1819 1.343717,-3.30729 2.827634,-6.94531 5.052576,-12.38707 5.611669,-13.75871 7.0639664,-17.33021 0.798846,-1.96453 1.965184,-4.82203 2.591863,-6.35 0.626679,-1.52797 1.34824,-3.34367 1.60347,-4.0349 l 0.464053,-1.25677 h 2.023054 2.02304 l 7.19241,17.66094 c 3.9558196,9.71351 7.2698296,17.87217 7.3644696,18.13034 0.1612,0.43975 -0.11762,0.46482 -4.4145596,0.39687 l -4.58663,-0.0725 -0.82744,-1.98438 -0.82744,-1.98437 h -5.89522 -5.895229 l -0.80077,2.05052 -0.8007714,2.05052 h -4.617752 c -3.586934,0 -4.588821,-0.0738 -4.488148,-0.33073 z M 0.0227454,264.67414 c -1.05461,-2.91345 -2.91351,-7.47448 -3.0463,-7.47448 -0.23717,0 -3.155208,7.49548 -3.01286,7.73906 0.06378,0.10914 1.490895,0.19844 3.17137,0.19844 2.79736,0 3.04124,-0.0391 2.88779,-0.46302 z m 16.7797396,-6.30227 v -17.87779 l 7.47448,0.0914 c 8.40814,0.10285 8.99669,0.21662 11.70782,2.26318 4.63108,3.49588 5.82156,10.61376 2.62597,15.70069 -0.32921,0.52407 -1.22007,1.49652 -1.97968,2.16101 -1.00169,0.87625 -1.33357,1.33202 -1.20809,1.65902 0.14284,0.37225 3.85617,6.71557 7.08223,12.09829 0.41558,0.69341 0.75561,1.3807 0.75561,1.52732 0,0.17194 -1.71293,0.24097 -4.82495,0.19446 l -4.82496,-0.0721 -4.10473,-7.54063 -4.10474,-7.54062 -0.0702,7.60677 -0.0702,7.60677 h -4.22927 -4.22928 z m 14.05405,-3.25775 c 1.25175,-1.25176 1.44642,-2.68485 0.58984,-4.34231 -0.65971,-1.27651 -1.81311,-1.77213 -4.1267,-1.77325 l -2.05052,-9.9e-4 v 3.57188 3.57187 h 2.28009 2.28008 z m 13.46262,20.85508 c 0,-0.16112 0.64817,-1.86057 1.44038,-3.77656 0.79221,-1.91598 4.05593,-9.91298 7.2527,-17.77111 l 5.81232,-14.2875 h 2.06194 2.06194 l 1.10091,2.77813 c 0.6055,1.52797 1.78527,4.445 2.62171,6.48229 1.61637,3.93691 2.59321,6.33233 5.77245,14.15521 1.09409,2.69213 2.60716,6.38307 3.36238,8.20208 0.75522,1.81901 1.43495,3.57518 1.5105,3.90261 l 0.13738,0.59531 h -4.54227 -4.54226 l -0.34049,-0.8599 c -0.18728,-0.47294 -0.54824,-1.42544 -0.80214,-2.11666 l -0.46163,-1.25678 h -5.89048 -5.89048 l -0.80051,2.05053 -0.80051,2.05052 -4.53192,0.0724 c -3.18104,0.0508 -4.53192,-0.0149 -4.53192,-0.22056 z m 19.57917,-11.14954 c 0,-0.17462 -0.57979,-1.81173 -1.28842,-3.63802 -0.70863,-1.82629 -1.36627,-3.54592 -1.46144,-3.82141 -0.0952,-0.27549 -0.22453,-0.44938 -0.2875,-0.38641 -0.18232,0.18232 -3.04806,7.61086 -3.04806,7.90115 0,0.158 1.20915,0.26219 3.04271,0.26219 2.19014,0 3.04271,-0.089 3.04271,-0.3175 z m 42.942955,10.97337 c 0.08,-0.25818 0.85514,-2.19582 1.72247,-4.30587 0.86733,-2.11005 2.4722,-6.03912 3.56638,-8.73125 1.09417,-2.69214 3.07975,-7.5737 4.41239,-10.84792 1.33264,-3.27422 2.96354,-7.29258 3.62422,-8.92969 l 1.20123,-2.97656 h 1.96625 1.96625 l 0.54259,1.25677 c 0.29843,0.69123 1.73125,4.1738 3.18405,7.73906 1.45281,3.56526 3.78166,9.28027 5.17525,12.7 1.39358,3.41974 3.27538,8.00365 4.18179,10.18646 0.9064,2.18282 1.59634,4.05805 1.53319,4.16719 -0.0632,0.10914 -2.11351,0.19844 -4.55636,0.19844 h -4.44154 l -0.8006,-2.05052 -0.80061,-2.05052 -5.92089,-0.0645 -5.92089,-0.0645 -0.79375,2.04892 -0.79375,2.04892 -4.59659,0.0725 c -4.29812,0.0678 -4.58714,0.0421 -4.45108,-0.39687 z M 126.34,264.75204 c 0,-0.31626 -0.95227,-2.89598 -2.6902,-7.2878 -0.2347,-0.5931 -0.42341,-0.25131 -1.82598,3.30729 -0.86032,2.18282 -1.56535,4.05805 -1.56673,4.16719 -0.001,0.10914 1.36671,0.19844 3.0402,0.19844 2.48696,0 3.04271,-0.0703 3.04271,-0.38512 z m 18.69722,11.32123 c -0.097,-0.097 -0.17639,-6.1692 -0.17639,-13.49375 v -13.31736 h -3.84301 -3.84301 l 0.0727,-4.29948 0.0727,-4.29948 11.8401,-0.0689 11.8401,-0.0689 v 4.36108 4.36109 l -3.77031,0.0734 -3.77031,0.0734 -0.0686,13.4276 -0.0686,13.42761 h -4.05452 c -2.22999,0 -4.1339,-0.0794 -4.23091,-0.17639 z m 19.57917,0 c -0.097,-0.097 -0.17639,-8.13373 -0.17639,-17.85938 v -17.68298 h 6.98359 c 7.89187,0 9.10533,0.20541 11.73918,1.98715 5.98388,4.04796 6.67624,13.0482 1.38088,17.95076 -0.87055,0.80598 -1.58282,1.54381 -1.58282,1.63963 0,0.13718 3.98113,6.93922 7.44319,12.71723 0.27187,0.45374 0.49431,0.95975 0.49431,1.12448 0,0.21182 -1.39089,0.2995 -4.75134,0.2995 h -4.75135 l -0.63533,-1.12448 c -0.34943,-0.61846 -2.15294,-3.92245 -4.0078,-7.34219 -1.85486,-3.41974 -3.47898,-6.33082 -3.60916,-6.46906 -0.13953,-0.14818 -0.23668,2.86553 -0.23668,7.34219 v 7.59354 h -4.05695 c -2.23132,0 -4.13632,-0.0794 -4.23333,-0.17639 z m 13.32602,-20.3333 c 1.00663,-0.52055 1.66505,-1.82123 1.6435,-3.24668 -0.0356,-2.35443 -1.54394,-3.49324 -4.62872,-3.49473 l -2.05052,-9.9e-4 v 3.57188 3.57187 h 2.1298 c 1.38624,0 2.40077,-0.14012 2.90594,-0.40135 z m 86.51009,2.65031 v -17.87281 l 4.16719,0.0729 4.16719,0.0729 v 17.72708 17.72709 l -4.16719,0.0729 -4.16719,0.0729 z M -46.571427,230.4807 c -2.196624,-0.32416 -4.372257,-1.04882 -6.60838,-2.2011 -2.949418,-1.51985 -6.208045,-4.78382 -7.744805,-7.75751 -2.12501,-4.11197 -2.725875,-9.03968 -1.649648,-13.52882 0.649892,-2.71081 0.820444,-3.04703 6.810416,-13.42591 2.687508,-4.65666 6.256337,-10.84791 7.93073,-13.75833 3.561312,-6.19024 4.569391,-7.93241 6.353535,-10.98021 0.724083,-1.23692 3.439173,-5.93989 6.033536,-10.45104 2.594362,-4.51115 7.055741,-12.25021 9.914176,-17.19792 4.806457,-8.31957 9.649632,-16.71353 20.8381214,-36.11562 2.391621,-4.14734 5.040031,-8.731249 5.885351,-10.186457 1.503,-2.587391 2.68889,-4.642416 15.3446496,-26.590626 9.82848,-17.045005 13.70084,-23.754888 15.34579,-26.590625 2.87207,-4.951173 6.26758,-10.836531 9.38794,-16.271876 1.7126,-2.983177 3.74014,-6.495521 4.50565,-7.805208 0.7655,-1.309688 2.69437,-4.643438 4.28638,-7.408334 5.05876,-8.7857601 11.16562,-19.3720451 15.03394,-26.061459 2.0617,-3.56526 5.63405,-9.75651 7.93854,-13.758333 5.18266,-8.999833 8.17969,-14.195373 10.75998,-18.653123 1.09502,-1.89177 5.35241,-9.27365 9.46088,-16.40417 4.10847,-7.13052 8.095435,-14.03615 8.859925,-15.34583 0.7645,-1.30969 2.76111,-4.7625 4.43692,-7.67292 1.67582,-2.91042 3.97558,-6.89902 5.1106,-8.86355 1.13501,-1.96453 3.12534,-5.417339 4.42296,-7.672909 2.84746,-4.94959 4.03024,-6.52969 6.28549,-8.39693 7.91851,-6.55616 20.04137,-5.51436 26.59062,2.28512 0.72761,0.8665 3.99206,6.19777 7.25435,11.847279 9.8372,17.03569 17.30866,29.98411 21.65193,37.52391 2.26332,3.92906 4.67549,8.09625 5.36036,9.26041 0.68488,1.16417 3.3651,5.80761 5.95604,10.31875 2.59095,4.51115 6.39941,11.119119 8.46325,14.684379 3.85808,6.664783 4.55525,7.873099 14.80776,25.6645839 3.31239,5.748073 7.36591,12.7727611 9.00783,15.6104171 3.30182,5.70639 11.10358,19.219381 18.02543,31.220835 8.28424,14.363616 15.75432,27.307185 20.99601,36.380209 2.8584,4.947708 7.32313,12.686771 9.92162,17.197917 2.59848,4.51115 6.65197,11.53583 9.00775,15.61041 6.35653,10.99433 9.77844,16.9256 14.34863,24.87084 4.33861,7.54262 10.71243,18.58431 13.28759,23.01875 2.29324,3.94897 8.30239,14.3644 16.33361,28.31041 8.42255,14.62556 8.60568,15.05451 8.64134,20.24063 0.0171,2.49046 -0.0991,3.73205 -0.47071,5.02708 -1.1165,3.89133 -3.54118,7.62426 -6.45577,9.93902 -1.71448,1.36163 -4.98076,3.02396 -7.33284,3.73195 -1.52345,0.45857 -8.87919,0.47935 -182.29793,0.51495 -99.390735,0.0204 -181.308531,-0.0512 -182.039547,-0.15904 z M 298.21469,199.85122 c -1.48984,-2.583 -4.11809,-7.13714 -5.84055,-10.12031 -1.72246,-2.98318 -3.98761,-6.91224 -5.03367,-8.73125 -1.04606,-1.81901 -2.79705,-4.85511 -3.89109,-6.74688 -1.09404,-1.89177 -3.11903,-5.40411 -4.49997,-7.80521 -1.38093,-2.40109 -3.16512,-5.49672 -3.96487,-6.87916 -2.07144,-3.58073 -12.03227,-20.82009 -13.75877,-23.8125 -0.79762,-1.38245 -2.38414,-4.12089 -3.52561,-6.08542 -1.14148,-1.96453 -2.60267,-4.52438 -3.2471,-5.68854 -0.64443,-1.16417 -1.2758,-2.24582 -1.40306,-2.40367 -0.12725,-0.15785 -0.68773,-1.11035 -1.24549,-2.11666 -0.55777,-1.00632 -1.67164,-2.96077 -2.47526,-4.34322 -0.80363,-1.38244 -2.62907,-4.5376 -4.05653,-7.01145 -1.42747,-2.47385 -3.48977,-6.04573 -4.58288,-7.9375 -2.72448,-4.71505 -4.30768,-7.459104 -7.25101,-12.567709 -1.3834,-2.401094 -3.20459,-5.55625 -4.04709,-7.011458 -0.8425,-1.455209 -2.86823,-4.967552 -4.50164,-7.805209 -3.71787,-6.458922 -7.11928,-12.353234 -9.69531,-16.801042 -1.09566,-1.891771 -3.16048,-5.463646 -4.5885,-7.9375 -1.42801,-2.473854 -3.90475,-6.760104 -5.50386,-9.525 -1.59911,-2.764896 -3.34419,-5.80099 -3.87795,-6.746875 -0.53376,-0.945886 -3.41569,-5.946511 -6.40428,-11.112501 -2.9886,-5.165989 -6.0864,-10.523802 -6.88402,-11.9062501 -0.79761,-1.382448 -2.34457,-4.061354 -3.43768,-5.953125 -5.94421,-10.287198 -7.30599,-12.646738 -8.55125,-14.8166669 -3.04473,-5.305586 -6.66649,-11.5874 -11.82223,-20.505209 -2.98666,-5.165986 -6.08316,-10.523806 -6.8811,-11.906246 -3.52011,-6.09864 -6.70959,-11.63234 -9.60745,-16.66876 -1.71647,-2.98317 -4.84161,-8.40052 -6.94476,-12.03854 -2.10316,-3.63802 -4.31744,-7.47632 -4.92063,-8.52956 -0.60319,-1.05325 -1.17346,-1.91645 -1.26726,-1.91823 -0.0938,-0.002 -1.00599,1.45527 -2.02708,3.2379 -1.02109,1.78263 -2.47632,4.31271 -3.23384,5.62239 -1.68583,2.91464 -6.62829,11.48107 -9.31186,16.13959 -1.08977,1.89177 -2.90988,5.04692 -4.0447,7.01146 -1.13481,1.96453 -4.05585,7.02468 -6.49119,11.24479 -7.37172,12.774122 -9.07688,15.727126 -11.152865,19.314581 -2.3595,4.077386 -6.02947,10.447237 -9.60365,16.6687509 -1.42119,2.473854 -2.67441,4.61697905 -2.78492,4.76250005 -0.11051,0.145521 -0.72896,1.21708295 -1.37432,2.38124995 -0.64536,1.164166 -3.61811,6.343385 -6.60612,11.5093751 -2.988,5.16599 -6.08532,10.523802 -6.88294,11.90625 -0.79761,1.382448 -2.34569,4.061355 -3.44017,5.953126 -1.09448,1.89177 -3.12103,5.404114 -4.50343,7.805208 -1.38241,2.401094 -3.85886,6.687344 -5.50323,9.525 -1.64438,2.837657 -3.42543,5.933282 -3.95791,6.879167 -0.53248,0.945886 -1.62538,2.850886 -2.42868,4.233334 -4.49087,7.728661 -7.96965,13.749986 -14.44542,25.003125 -2.26103,3.929063 -5.00607,8.691563 -6.10009,10.583334 -4.96778,8.59024 -6.93169,11.99057 -9.70371,16.80104 -1.63519,2.83765 -4.03908,7.00484 -5.34198,9.26041 -1.3029,2.25558 -4.6691,8.08964 -7.4804396,12.96459 -2.81134,4.87495 -5.73444,9.9351 -6.49577,11.24479 -1.54435,2.6567 -5.0778,8.77507 -12.4532544,21.56354 -2.727587,4.72943 -5.578469,9.67052 -6.335294,10.98021 -0.756825,1.30969 -2.506402,4.34578 -3.887949,6.74688 -1.381548,2.40109 -3.201547,5.55625 -4.044443,7.01145 -0.842896,1.45521 -2.41942,4.19365 -3.503387,6.08542 -1.083967,1.89177 -2.262783,3.9456 -2.619591,4.56406 l -0.648741,1.12448 H 134.51017 300.92349 Z M 7.0830054,173.70899 c -1.79233,-0.89315 -2.57209,-2.36229 -2.39395,-4.51042 0.12749,-1.53737 0.64272,-2.45996 1.89658,-3.39611 l 0.73065,-0.54551 129.9325646,-0.067 129.93256,-0.0669 1.11466,0.65323 c 1.35669,0.79507 1.97727,1.99671 1.97727,3.82862 0,1.88587 -0.54651,3.02153 -1.87808,3.90273 l -1.12598,0.74514 -129.41264,0.0672 -129.4126446,0.0672 z M 110.59729,145.36631 c -2.47386,-0.0333 -12.594175,-0.18549 -22.489595,-0.33816 -9.89541,-0.15267 -23.7662,-0.3506 -30.82396,-0.43983 -7.05776,-0.0892 -12.9192,-0.24138 -13.02543,-0.33808 -0.96246,-0.87616 -1.23188,-20.73694 -0.36827,-27.14746 0.98672,-7.32434 2.60696,-14.30987 4.87875,-21.034372 3.82808,-11.331131 10.21259,-22.91984 17.79288,-32.296413 C 82.961755,43.48562 105.44078,30.782118 129.515,28.195366 c 7.5239,-0.808436 18.03998,-0.372036 24.60625,1.02112 23.21885,4.926311 41.49163,19.802047 53.03046,43.171713 6.89759,13.969724 10.45818,28.776361 10.46671,43.525581 0.006,10.78914 -2.00412,20.39145 -5.68775,27.16708 l -1.12415,2.06775 -12.00461,0.0625 c -6.60254,0.0344 -14.78121,-0.0251 -18.17482,-0.13229 l -6.17019,-0.19482 1.48514,-1.85208 c 3.42711,-4.27387 5.34437,-6.974 6.01553,-8.47188 1.54405,-3.44595 2.13354,-7.40197 2.00991,-13.48854 l -0.0806,-3.96875 h -33.4698 -33.46979 l 0.0193,3.70417 c 0.0382,7.34097 1.4253,11.80796 6.24948,20.12572 1.09165,1.8822 2.12625,3.69008 2.29911,4.01751 l 0.31429,0.59531 -5.36712,-0.0593 c -2.95192,-0.0326 -7.39119,-0.0866 -9.86504,-0.11988 z M 164.44,138.57539 c -0.50932,-0.20194 -1.64042,-0.71058 -2.51354,-1.13031 -1.42028,-0.68274 -1.85228,-0.76114 -4.10105,-0.74419 -1.54251,0.0116 -3.68899,0.26148 -5.55625,0.64675 -2.12132,0.4377 -3.96409,0.63226 -6.08541,0.64252 -2.74064,0.0132 -3.18718,-0.0534 -4.49792,-0.6709 -1.69872,-0.80033 -3.11061,-2.17177 -4.09186,-3.97466 -0.75319,-1.38385 -1.8174,-5.26133 -2.11003,-7.68795 l -0.18092,-1.5003 23.36588,0.14372 c 12.85124,0.079 23.47477,0.24393 23.60784,0.36641 0.35508,0.32683 -0.78394,4.02192 -1.90951,6.19463 -1.76015,3.39767 -4.82464,5.72188 -9.57723,7.2637 -2.25172,0.73049 -5.12909,0.93466 -6.35,0.45058 z"
       id="path1"
       inkscape:export-filename="path1.png"
       inkscape:export-xdpi="300"
       inkscape:export-ydpi="300" /></g></svg>
