<?xml version="1.0" encoding="UTF-8" standalone="no"?>
<!-- Created with Digital by H.Neemann -->

<!-- created: Thu Aug 28 21:01:24 BRT 2025 -->

<svg
   width="42.1614mm"
   height="63.724262mm"
   viewBox="318 158 281.07601 424.82842"
   version="1.1"
   id="svg29"
   sodipodi:docname="portas.svg"
   inkscape:version="1.3.1 (91b66b0783, 2023-11-16)"
   xmlns:inkscape="http://www.inkscape.org/namespaces/inkscape"
   xmlns:sodipodi="http://sodipodi.sourceforge.net/DTD/sodipodi-0.dtd"
   xmlns="http://www.w3.org/2000/svg"
   xmlns:svg="http://www.w3.org/2000/svg">
  <defs
     id="defs29" />
  <sodipodi:namedview
     id="namedview29"
     pagecolor="#ffffff"
     bordercolor="#000000"
     borderopacity="0.25"
     inkscape:showpageshadow="2"
     inkscape:pageopacity="0.0"
     inkscape:pagecheckerboard="0"
     inkscape:deskcolor="#d1d1d1"
     inkscape:document-units="mm"
     inkscape:zoom="3.1945085"
     inkscape:cx="73.563742"
     inkscape:cy="226.32589"
     inkscape:window-width="1920"
     inkscape:window-height="995"
     inkscape:window-x="-9"
     inkscape:window-y="-9"
     inkscape:window-maximized="1"
     inkscape:current-layer="svg29" />
  <path
     d="m 518,310 h 60"
     stroke="#0000ff"
     stroke-width="4"
     fill="none"
     id="path1"
     style="stroke-linecap:square"
     inkscape:export-filename="nor.svg"
     inkscape:export-xdpi="96"
     inkscape:export-ydpi="96" />
  <path
     d="m 518,550 h 60"
     stroke="#0000ff"
     stroke-width="4"
     fill="none"
     id="path2"
     style="stroke-linecap:square"
     inkscape:export-filename="xnor.svg"
     inkscape:export-xdpi="96"
     inkscape:export-ydpi="96" />
  <path
     d="m 338,170 h 80"
     stroke="#0000ff"
     stroke-width="4"
     fill="none"
     id="path3"
     style="stroke-linecap:square"
     inkscape:export-filename="nand.svg"
     inkscape:export-xdpi="96"
     inkscape:export-ydpi="96" />
  <path
     d="m 338,330 h 80 4"
     stroke="#0000ff"
     stroke-width="4"
     fill="none"
     id="path4"
     style="stroke-linecap:square" />
  <path
     d="m 338,410 h 80 14"
     stroke="#0000ff"
     stroke-width="4"
     fill="none"
     id="path5"
     style="stroke-linecap:square"
     inkscape:export-filename="xor.svg"
     inkscape:export-xdpi="96"
     inkscape:export-ydpi="96" />
  <path
     d="m 338,570 h 80 14"
     stroke="#0000ff"
     stroke-width="4"
     fill="none"
     id="path6"
     style="stroke-linecap:square" />
  <path
     d="m 518,190 h 60"
     stroke="#0000ff"
     stroke-width="4"
     fill="none"
     id="path7"
     style="stroke-linecap:square" />
  <path
     d="m 498,430 h 80"
     stroke="#0000ff"
     stroke-width="4"
     fill="none"
     id="path8"
     style="stroke-linecap:square" />
  <path
     d="m 338,210 h 80"
     stroke="#0000ff"
     stroke-width="4"
     fill="none"
     id="path9"
     style="stroke-linecap:square" />
  <path
     d="m 338,290 h 80 4"
     stroke="#0000ff"
     stroke-width="4"
     fill="none"
     id="path10"
     style="stroke-linecap:square" />
  <path
     d="m 338,450 h 80 14"
     stroke="#0000ff"
     stroke-width="4"
     fill="none"
     id="path11"
     style="stroke-linecap:square" />
  <path
     d="m 338,530 h 80 14"
     stroke="#0000ff"
     stroke-width="4"
     fill="none"
     id="path12"
     style="stroke-linecap:square" />
  <g
     id="g12"
     style="stroke-linecap:square"
     transform="translate(-2,-10)" />
  <g
     id="g16"
     style="stroke-linecap:square"
     transform="translate(-2,-10)">
    <path
       d="m 470,230 h -49 v -60 h 49 c 10,0 30,10 29,30 0,20 -19,30 -29,30 z"
       stroke="#000000"
       stroke-width="4"
       fill="none"
       id="path13" />
    <circle
       cx="510"
       cy="200"
       r="9"
       stroke="#000000"
       stroke-width="4"
       fill="none"
       id="circle13" />
  </g>
  <g
     id="g20"
     style="stroke-linecap:square"
     transform="translate(-2,-10)">
    <path
       d="m 450,350 h -30 c 10,-16 10,-44 0,-60 h 20 c 30,0 50,10 60,30 -10,20 -30,30 -50,30 z"
       stroke="#000000"
       stroke-width="4"
       fill="none"
       id="path16" />
    <circle
       cx="510"
       cy="320"
       r="9"
       stroke="#000000"
       stroke-width="4"
       fill="none"
       id="circle17" />
  </g>
  <g
     id="g23"
     style="stroke-linecap:square"
     transform="translate(-2,-10)">
    <path
       d="m 450,470 h -20 c 10,-16 10,-44 0,-60 h 20 c 20,0 40,10 50,30 -10,20 -30,30 -50,30 z"
       stroke="#000000"
       stroke-width="4"
       fill="none"
       id="path20" />
    <path
       d="m 420,470 c 10,-10 10,-50 0,-60"
       stroke="#000000"
       stroke-width="4"
       fill="none"
       id="path21" />
  </g>
  <g
     id="g27"
     style="stroke-linecap:square"
     transform="translate(-2,-10)">
    <path
       d="m 450,590 h -20 c 10,-16 10,-44 0,-60 h 20 c 20,0 40,10 50,30 -10,20 -30,30 -50,30 z"
       stroke="#000000"
       stroke-width="4"
       fill="none"
       id="path23" />
    <path
       d="m 420,590 c 10,-10 10,-50 0,-60"
       stroke="#000000"
       stroke-width="4"
       fill="none"
       id="path24" />
    <circle
       cx="510"
       cy="560"
       r="9"
       stroke="#000000"
       stroke-width="4"
       fill="none"
       id="circle24" />
  </g>
  <g
     id="g30"
     transform="translate(-2,-10)">
    <g
       id="g28"
       style="stroke-linecap:square"
       transform="translate(0,10.583334)">
      <text
         text-anchor="start"
         x="320"
         y="178"
         fill="#000000"
         style="font-size:24px"
         id="text27">A</text>
    </g>
    <g
       id="g29"
       style="stroke-linecap:square"
       transform="translate(2.0223325e-7,50.708016)">
      <text
         text-anchor="start"
         x="320"
         y="178"
         fill="#000000"
         style="font-size:24px"
         id="text29">B</text>
      <text
         text-anchor="start"
         x="587.492"
         y="158.12213"
         fill="#000000"
         style="font-size:24px"
         id="text30">Y</text>
    </g>
  </g>
  <g
     id="g34"
     transform="translate(-2,109.94446)">
    <g
       id="g31"
       style="stroke-linecap:square"
       transform="translate(0,10.583334)">
      <text
         text-anchor="start"
         x="320"
         y="178"
         fill="#000000"
         style="font-size:24px"
         id="text31">A</text>
    </g>
    <g
       id="g33"
       style="stroke-linecap:square"
       transform="translate(2.0223325e-7,50.708016)">
      <text
         text-anchor="start"
         x="320"
         y="178"
         fill="#000000"
         style="font-size:24px"
         id="text32">B</text>
      <text
         text-anchor="start"
         x="587.492"
         y="158.12213"
         fill="#000000"
         style="font-size:24px"
         id="text33">Y</text>
    </g>
  </g>
  <g
     id="g37"
     transform="translate(-2,229.88892)">
    <g
       id="g35"
       style="stroke-linecap:square"
       transform="translate(0,10.583334)">
      <text
         text-anchor="start"
         x="320"
         y="178"
         fill="#000000"
         style="font-size:24px"
         id="text34">A</text>
    </g>
    <g
       id="g36"
       style="stroke-linecap:square"
       transform="translate(2.0223325e-7,50.708016)">
      <text
         text-anchor="start"
         x="320"
         y="178"
         fill="#000000"
         style="font-size:24px"
         id="text35">B</text>
      <text
         text-anchor="start"
         x="587.492"
         y="158.12213"
         fill="#000000"
         style="font-size:24px"
         id="text36">Y</text>
    </g>
  </g>
  <g
     id="g40"
     transform="translate(-2,349.83338)">
    <g
       id="g38"
       style="stroke-linecap:square"
       transform="translate(0,10.583334)">
      <text
         text-anchor="start"
         x="320"
         y="178"
         fill="#000000"
         style="font-size:24px"
         id="text37">A</text>
    </g>
    <g
       id="g39"
       style="stroke-linecap:square"
       transform="translate(2.0223325e-7,50.708016)">
      <text
         text-anchor="start"
         x="320"
         y="178"
         fill="#000000"
         style="font-size:24px"
         id="text38">B</text>
      <text
         text-anchor="start"
         x="587.492"
         y="158.12213"
         fill="#000000"
         style="font-size:24px"
         id="text39">Y</text>
    </g>
  </g>
</svg>
