<?xml version="1.0" encoding="UTF-8" standalone="no"?>
<!-- Created with Inkscape (http://www.inkscape.org/) -->

<svg
   width="250.82195mm"
   height="112.89906mm"
   viewBox="0 0 250.82195 112.89906"
   version="1.1"
   id="svg1"
   inkscape:version="1.3.1 (91b66b0783, 2023-11-16)"
   sodipodi:docname="VennTeo9b.svg"
   xmlns:inkscape="http://www.inkscape.org/namespaces/inkscape"
   xmlns:sodipodi="http://sodipodi.sourceforge.net/DTD/sodipodi-0.dtd"
   xmlns="http://www.w3.org/2000/svg"
   xmlns:svg="http://www.w3.org/2000/svg">
  <sodipodi:namedview
     id="namedview1"
     pagecolor="#ffffff"
     bordercolor="#000000"
     borderopacity="0.25"
     inkscape:showpageshadow="2"
     inkscape:pageopacity="0.0"
     inkscape:pagecheckerboard="0"
     inkscape:deskcolor="#d1d1d1"
     inkscape:document-units="mm"
     inkscape:zoom="0.73587183"
     inkscape:cx="531.34253"
     inkscape:cy="226.94169"
     inkscape:window-width="1920"
     inkscape:window-height="995"
     inkscape:window-x="-9"
     inkscape:window-y="-9"
     inkscape:window-maximized="1"
     inkscape:current-layer="layer1" />
  <defs
     id="defs1" />
  <g
     inkscape:label="Camada 1"
     inkscape:groupmode="layer"
     id="layer1"
     transform="translate(-21.652741,-52.275017)">
    <path
       id="path4"
       style="fill:#ff00ff;stroke-width:1.05833;stroke-linecap:square"
       d="M 160.29446,52.275017 V 165.17407 H 272.47469 V 52.275017 Z m 39.18314,13.473079 a 30.606871,30.606871 0 0 1 30.60692,30.606918 30.606871,30.606871 0 0 1 -0.19689,3.336747 A 30.606871,30.606871 0 0 0 218.5276,97.498096 30.606871,30.606871 0 0 0 188.16046,124.75225 30.606871,30.606871 0 0 1 168.87067,96.355014 30.606871,30.606871 0 0 1 199.4776,65.748096 Z" />
    <path
       id="rect1"
       style="fill:#ff00ff;stroke-width:1.05833;stroke-linecap:square"
       d="M 21.652741,52.275017 V 165.17407 H 133.83293 V 52.275017 Z M 60.83586,65.748096 A 30.606871,30.606871 0 0 1 91.442762,96.355014 30.606871,30.606871 0 0 1 91.245872,99.691761 30.606871,30.606871 0 0 0 79.885848,97.498096 30.606871,30.606871 0 0 0 49.518726,124.75225 30.606871,30.606871 0 0 1 30.228955,96.355014 30.606871,30.606871 0 0 1 60.83586,65.748096 Z" />
    <path
       id="circle8"
       style="fill:#00ffff;fill-opacity:0.523121;stroke:none;stroke-width:1.05833;stroke-linecap:square"
       d="M 60.835925,65.748097 A 30.606871,30.606871 0 0 0 30.229008,96.355014 30.606871,30.606871 0 0 0 60.835925,126.96193 30.606871,30.606871 0 0 0 79.356758,120.62588 30.606871,30.606871 0 0 0 97.877592,126.96193 30.606871,30.606871 0 0 0 128.48451,96.355014 30.606871,30.606871 0 0 0 97.877592,65.748097 30.606871,30.606871 0 0 0 79.414119,72.041253 30.606871,30.606871 0 0 0 60.835925,65.748097 Z" />
    <circle
       style="fill:none;fill-opacity:0.555354;stroke:#0000ff;stroke-width:1.05833;stroke-linecap:square"
       id="circle3"
       cx="60.835876"
       cy="96.354965"
       r="30.606871" />
    <circle
       style="fill:none;fill-opacity:0.523121;stroke:#0000ff;stroke-width:1.05833;stroke-linecap:square"
       id="path1"
       cx="60.83588"
       cy="96.354965"
       r="30.606871" />
    <path
       id="circle4"
       style="fill:#ffff00;fill-opacity:0.523121;stroke:none;stroke-width:1.05833;stroke-linecap:square"
       d="m 97.877592,65.748096 a 30.606871,30.606871 0 0 0 -30.606918,30.606918 30.606871,30.606871 0 0 0 0.269751,3.771346 30.606871,30.606871 0 0 0 -18.261417,27.97865 30.606871,30.606871 0 0 0 30.606917,30.60692 30.606871,30.606871 0 0 0 30.606915,-30.60692 30.606871,30.606871 0 0 0 -0.24339,-3.78116 30.606871,30.606871 0 0 0 18.23506,-27.968836 30.606871,30.606871 0 0 0 -30.606918,-30.606918 z" />
    <circle
       style="fill:none;fill-opacity:0.523121;stroke:#00ff00;stroke-width:1.05833;stroke-linecap:square"
       id="circle1"
       cx="97.877533"
       cy="96.354965"
       r="30.606871" />
    <circle
       style="fill:none;fill-opacity:0.523121;stroke:#ff0000;stroke-width:1.05833;stroke-linecap:square"
       id="circle2"
       cx="79.885857"
       cy="128.10497"
       r="30.606871" />
    <text
       xml:space="preserve"
       style="font-size:6.35px;line-height:100%;font-family:sans-serif;-inkscape-font-specification:sans-serif;fill:#000000;fill-opacity:1;stroke:none;stroke-width:1.05833;stroke-linecap:square"
       x="31.816509"
       y="72.627274"
       id="text14"><tspan
         sodipodi:role="line"
         id="tspan14"
         style="fill:#000000;fill-opacity:1;stroke-width:1.05833"
         x="31.816509"
         y="72.627274">A</tspan></text>
    <text
       xml:space="preserve"
       style="font-size:6.35px;line-height:100%;font-family:sans-serif;-inkscape-font-specification:sans-serif;fill:#000000;fill-opacity:1;stroke:none;stroke-width:1.05833;stroke-linecap:square"
       x="120.19989"
       y="71.766342"
       id="text15"><tspan
         sodipodi:role="line"
         id="tspan15"
         style="fill:#000000;fill-opacity:1;stroke-width:1.05833"
         x="120.19989"
         y="71.766342">B</tspan></text>
    <text
       xml:space="preserve"
       style="font-size:6.35px;line-height:100%;font-family:sans-serif;-inkscape-font-specification:sans-serif;fill:#000000;fill-opacity:0.528131;stroke:none;stroke-width:1.05833;stroke-linecap:square"
       x="109.28394"
       y="151.55081"
       id="text16"><tspan
         sodipodi:role="line"
         id="tspan16"
         style="fill:#000000;fill-opacity:1;stroke-width:1.05833"
         x="109.28394"
         y="151.55081">C</tspan></text>
    <path
       id="path15"
       style="fill:#00ffff;fill-opacity:0.523121;stroke:none;stroke-width:1.05833;stroke-linecap:square"
       d="m 199.47763,65.748097 a 30.606871,30.606871 0 0 0 -30.60692,30.606917 30.606871,30.606871 0 0 0 30.60692,30.606916 30.606871,30.606871 0 0 0 18.52083,-6.33605 30.606871,30.606871 0 0 0 18.52083,6.33605 30.606871,30.606871 0 0 0 30.60692,-30.606916 30.606871,30.606871 0 0 0 -30.60692,-30.606917 30.606871,30.606871 0 0 0 -18.46347,6.293156 30.606871,30.606871 0 0 0 -18.57819,-6.293156 z" />
    <circle
       style="fill:none;fill-opacity:0.555354;stroke:#0000ff;stroke-width:1.05833;stroke-linecap:square"
       id="circle15"
       cx="199.47757"
       cy="96.354965"
       r="30.606871" />
    <circle
       style="fill:none;fill-opacity:0.523121;stroke:#00ff00;stroke-width:1.05833;stroke-linecap:square"
       id="circle17"
       cx="236.51923"
       cy="96.354965"
       r="30.606871" />
    <circle
       style="fill:none;fill-opacity:0.523121;stroke:#ff0000;stroke-width:1.05833;stroke-linecap:square"
       id="circle18"
       cx="218.52754"
       cy="128.10497"
       r="30.606871" />
    <text
       xml:space="preserve"
       style="font-size:6.35px;line-height:100%;font-family:sans-serif;-inkscape-font-specification:sans-serif;fill:#000000;fill-opacity:1;stroke:none;stroke-width:1.05833;stroke-linecap:square"
       x="170.45819"
       y="72.627274"
       id="text20"><tspan
         sodipodi:role="line"
         id="tspan20"
         style="fill:#000000;fill-opacity:1;stroke-width:1.05833"
         x="170.45819"
         y="72.627274">A</tspan></text>
    <text
       xml:space="preserve"
       style="font-size:6.35px;line-height:100%;font-family:sans-serif;-inkscape-font-specification:sans-serif;fill:#000000;fill-opacity:1;stroke:none;stroke-width:1.05833;stroke-linecap:square"
       x="258.84158"
       y="71.766342"
       id="text21"><tspan
         sodipodi:role="line"
         id="tspan21"
         style="fill:#000000;fill-opacity:1;stroke-width:1.05833"
         x="258.84158"
         y="71.766342">B</tspan></text>
    <text
       xml:space="preserve"
       style="font-size:6.35px;line-height:100%;font-family:sans-serif;-inkscape-font-specification:sans-serif;fill:#000000;fill-opacity:0.528131;stroke:none;stroke-width:1.05833;stroke-linecap:square"
       x="247.92563"
       y="151.55081"
       id="text22"><tspan
         sodipodi:role="line"
         id="tspan22"
         style="fill:#000000;fill-opacity:1;stroke-width:1.05833"
         x="247.92563"
         y="151.55081">C</tspan></text>
    <circle
       style="fill:none;fill-opacity:0.523121;stroke:#00ff00;stroke-width:1.05833;stroke-linecap:square"
       id="circle22"
       cx="236.51923"
       cy="96.354965"
       r="30.606871" />
  </g>
</svg>
