<?xml version="1.0" encoding="UTF-8" standalone="no"?>
<!-- Created with Inkscape (http://www.inkscape.org/) -->

<svg
   width="117.58817mm"
   height="148.06041mm"
   viewBox="0 0 117.58816 148.06041"
   version="1.1"
   id="svg1"
   inkscape:version="1.3.1 (91b66b0783, 2023-11-16)"
   sodipodi:docname="VennTeo6.svg"
   xmlns:inkscape="http://www.inkscape.org/namespaces/inkscape"
   xmlns:sodipodi="http://sodipodi.sourceforge.net/DTD/sodipodi-0.dtd"
   xmlns="http://www.w3.org/2000/svg"
   xmlns:svg="http://www.w3.org/2000/svg">
  <sodipodi:namedview
     id="namedview1"
     pagecolor="#ffffff"
     bordercolor="#000000"
     borderopacity="0.25"
     inkscape:showpageshadow="2"
     inkscape:pageopacity="0.0"
     inkscape:pagecheckerboard="0"
     inkscape:deskcolor="#d1d1d1"
     inkscape:document-units="mm"
     inkscape:zoom="1.4153007"
     inkscape:cx="186.17952"
     inkscape:cy="364.58684"
     inkscape:window-width="1920"
     inkscape:window-height="995"
     inkscape:window-x="-9"
     inkscape:window-y="-9"
     inkscape:window-maximized="1"
     inkscape:current-layer="layer1" />
  <defs
     id="defs1" />
  <g
     inkscape:label="Camada 1"
     inkscape:groupmode="layer"
     id="layer1"
     transform="translate(-76.130613,-65.21893)">
    <path
       id="rect28"
       style="fill:#ff6600;fill-opacity:0.493648;stroke:none;stroke-width:1.05833;stroke-linecap:square"
       d="m 76.130613,140.9001 v 72.34752 H 193.71878 V 140.9001 Z m 79.955327,10.04383 a 30.606871,30.606871 0 0 1 30.60692,30.60692 30.606871,30.606871 0 0 1 -30.60692,30.60692 30.606871,30.606871 0 0 1 -18.50895,-6.34535 30.606871,30.606871 0 0 0 12.0742,-24.26157 30.606871,30.606871 0 0 0 -12.01529,-24.30291 30.606871,30.606871 0 0 1 18.45004,-6.30401 z" />
    <path
       id="circle24"
       style="fill:#00ffff;fill-opacity:0.523121;stroke:none;stroke-width:1.05833;stroke-linecap:square"
       d="m 119.04424,150.94394 a 30.606871,30.606871 0 0 0 -30.606924,30.60691 30.606871,30.606871 0 0 0 30.606924,30.60692 30.606871,30.606871 0 0 0 18.52083,-6.33605 30.606871,30.606871 0 0 0 18.52084,6.33605 30.606871,30.606871 0 0 0 30.60692,-30.60692 30.606871,30.606871 0 0 0 -30.60692,-30.60691 30.606871,30.606871 0 0 0 -18.46347,6.29315 30.606871,30.606871 0 0 0 -18.5782,-6.29315 z" />
    <circle
       style="fill:none;fill-opacity:0.523121;stroke:#0000ff;stroke-width:1.05833;stroke-linecap:square"
       id="path1"
       cx="119.04425"
       cy="96.354965"
       r="30.606871" />
    <circle
       style="fill:none;fill-opacity:0.555354;stroke:#0000ff;stroke-width:1.05833;stroke-linecap:square"
       id="circle3"
       cx="119.04425"
       cy="96.354965"
       r="30.606871" />
    <path
       id="circle23"
       style="fill:#00ffff;fill-opacity:0.555354;stroke:none;stroke-width:1.05833;stroke-linecap:square"
       d="M 137.62249,72.041253 A 30.606871,30.606871 0 0 0 125.47905,96.355014 30.606871,30.606871 0 0 0 137.56513,120.62588 30.606871,30.606871 0 0 0 149.65121,96.355014 30.606871,30.606871 0 0 0 137.62249,72.041253 Z" />
    <path
       id="circle26"
       style="fill:#ff00ff;fill-opacity:0.555354;stroke:none;stroke-width:1.05833;stroke-linecap:square"
       d="m 119.04427,65.748097 a 30.606871,30.606871 0 0 0 -30.606914,30.606916 30.606871,30.606871 0 0 0 30.606914,30.606917 30.606871,30.606871 0 0 0 18.52084,-6.33605 30.606871,30.606871 0 0 1 -12.08609,-24.270867 30.606871,30.606871 0 0 1 12.14345,-24.31376 30.606871,30.606871 0 0 0 -18.5782,-6.293156 z" />
    <circle
       style="fill:none;fill-opacity:0.523121;stroke:#00ff00;stroke-width:1.05833;stroke-linecap:square"
       id="circle1"
       cx="156.08591"
       cy="96.354965"
       r="30.606871" />
    <text
       xml:space="preserve"
       style="font-size:6.35px;line-height:100%;font-family:sans-serif;-inkscape-font-specification:sans-serif;fill:#000000;fill-opacity:1;stroke:none;stroke-width:1.05833;stroke-linecap:square"
       x="90.024879"
       y="72.627274"
       id="text14"><tspan
         sodipodi:role="line"
         id="tspan14"
         style="fill:#000000;fill-opacity:1;stroke-width:1.05833"
         x="90.024879"
         y="72.627274">A</tspan></text>
    <text
       xml:space="preserve"
       style="font-size:6.35px;line-height:100%;font-family:sans-serif;-inkscape-font-specification:sans-serif;fill:#000000;fill-opacity:1;stroke:none;stroke-width:1.05833;stroke-linecap:square"
       x="178.40826"
       y="71.766342"
       id="text15"><tspan
         sodipodi:role="line"
         id="tspan15"
         style="fill:#000000;fill-opacity:1;stroke-width:1.05833"
         x="178.40826"
         y="71.766342">B</tspan></text>
    <circle
       style="fill:none;fill-opacity:0.523121;stroke:#00ff00;stroke-width:1.05833;stroke-linecap:square"
       id="circle12"
       cx="156.08592"
       cy="181.02164"
       r="30.606871" />
    <text
       xml:space="preserve"
       style="font-size:6.35px;line-height:100%;font-family:sans-serif;-inkscape-font-specification:sans-serif;fill:#000000;fill-opacity:1;stroke:none;stroke-width:1.05833;stroke-linecap:square"
       x="90.024834"
       y="157.29395"
       id="text17"><tspan
         sodipodi:role="line"
         id="tspan17"
         style="fill:#000000;fill-opacity:1;stroke-width:1.05833"
         x="90.024834"
         y="157.29395">A</tspan></text>
    <text
       xml:space="preserve"
       style="font-size:6.35px;line-height:100%;font-family:sans-serif;-inkscape-font-specification:sans-serif;fill:#000000;fill-opacity:1;stroke:none;stroke-width:1.05833;stroke-linecap:square"
       x="178.40829"
       y="156.43301"
       id="text18"><tspan
         sodipodi:role="line"
         id="tspan18"
         style="fill:#000000;fill-opacity:1;stroke-width:1.05833"
         x="178.40829"
         y="156.43301">B</tspan></text>
    <rect
       style="fill:none;fill-opacity:0.493648;stroke:none;stroke-width:1.05833;stroke-linecap:square"
       id="rect27"
       width="107.11946"
       height="72.908531"
       x="81.178169"
       y="140.3708" />
  </g>
</svg>
